<?xml version="1.0" standalone="no"?>
<!DOCTYPE svg PUBLIC "-//W3C//DTD SVG 20010904//EN"
 "http://www.w3.org/TR/2001/REC-SVG-20010904/DTD/svg10.dtd">
<svg version="1.0" xmlns="http://www.w3.org/2000/svg"
 width="900.000000pt" height="900.000000pt" viewBox="0 0 900.000000 900.000000"
 preserveAspectRatio="xMidYMid meet">
<metadata>
Created by potrace 1.11, written by Peter Selinger 2001-2013
</metadata>
<g transform="translate(0.000000,900.000000) scale(0.100000,-0.100000)"
fill="#000000" stroke="none">
<path d="M4317 8849 c-185 -21 -408 -92 -560 -179 -134 -76 -2991 -2159 -3096
-2257 -51 -48 -116 -119 -143 -157 -66 -92 -131 -229 -160 -336 l-23 -85 0
-1355 0 -1355 23 -84 c28 -103 74 -205 137 -303 106 -163 120 -174 1700 -1323
809 -588 1499 -1087 1535 -1109 430 -262 1076 -267 1512 -11 133 78 2985 2157
3082 2247 151 140 245 288 303 475 25 81 27 101 27 263 0 163 -2 181 -28 265
-54 175 -138 316 -265 443 -47 47 -188 157 -359 282 -155 112 -282 207 -282
210 0 4 120 94 267 201 367 266 475 373 571 565 65 129 93 238 99 387 7 153
-6 246 -52 374 -56 156 -171 324 -297 433 -25 22 -714 526 -1530 1120 -1195
870 -1504 1090 -1590 1134 -121 62 -289 118 -423 141 -115 20 -334 27 -448 14z
m351 -1084 c23 -9 682 -482 1463 -1051 l1420 -1033 -73 -54 c-40 -29 -207
-151 -372 -271 -282 -205 -299 -216 -320 -202 -11 8 -352 255 -756 550 -794
579 -844 611 -1056 679 -401 129 -871 86 -1217 -113 -42 -24 -412 -288 -823
-586 -465 -339 -751 -541 -759 -536 -38 22 -725 527 -725 532 0 8 2798 2047
2839 2069 56 31 116 40 226 37 76 -2 123 -8 153 -21z m9 -2406 c29 -13 315
-215 637 -449 543 -395 583 -426 568 -441 -52 -51 -1175 -856 -1217 -873 -68
-27 -256 -29 -330 -3 -34 12 -239 155 -640 447 -324 236 -591 434 -593 439 -3
8 1131 839 1187 870 55 30 116 40 226 38 92 -3 119 -7 162 -28z m-1745 -2080
c408 -297 773 -559 810 -580 438 -256 1067 -258 1498 -5 42 24 406 284 810
578 404 294 740 537 747 541 7 5 156 -97 383 -262 l371 -270 -58 -43 c-712
-525 -2791 -2027 -2828 -2042 -68 -28 -256 -30 -330 -3 -35 12 -476 328 -1465
1047 -778 567 -1416 1034 -1418 1039 -2 6 723 541 734 541 2 0 337 -243 746
-541z"/>
</g>
</svg>
